<mxfile host="app.diagrams.net" modified="2024-07-16T09:22:55.871Z" agent="Mozilla/5.0 (Windows NT 10.0; Win64; x64) AppleWebKit/537.36 (KHTML, like Gecko) Chrome/112.0.0.0 Safari/537.36" etag="wyKE-EUz7JO1RWvCopq-" version="24.6.5" type="github">
  <diagram name="第 1 页" id="vPsSh9iqOYSn_BN9iD2Z">
    <mxGraphModel dx="1408" dy="811" grid="1" gridSize="10" guides="1" tooltips="1" connect="1" arrows="1" fold="1" page="1" pageScale="1" pageWidth="1654" pageHeight="2336" math="0" shadow="0">
      <root>
        <mxCell id="0" />
        <mxCell id="1" parent="0" />
        <mxCell id="KE_0EZvATPjBC4SKUIB_-3" value="" style="edgeStyle=orthogonalEdgeStyle;rounded=0;orthogonalLoop=1;jettySize=auto;html=1;" parent="1" source="KE_0EZvATPjBC4SKUIB_-1" target="KE_0EZvATPjBC4SKUIB_-2" edge="1">
          <mxGeometry relative="1" as="geometry" />
        </mxCell>
        <mxCell id="KE_0EZvATPjBC4SKUIB_-5" style="edgeStyle=orthogonalEdgeStyle;rounded=0;orthogonalLoop=1;jettySize=auto;html=1;exitX=0.5;exitY=0;exitDx=0;exitDy=0;entryX=0.5;entryY=1;entryDx=0;entryDy=0;" parent="1" source="KE_0EZvATPjBC4SKUIB_-1" target="KE_0EZvATPjBC4SKUIB_-4" edge="1">
          <mxGeometry relative="1" as="geometry" />
        </mxCell>
        <mxCell id="KE_0EZvATPjBC4SKUIB_-7" style="edgeStyle=orthogonalEdgeStyle;rounded=0;orthogonalLoop=1;jettySize=auto;html=1;exitX=1;exitY=0.5;exitDx=0;exitDy=0;entryX=0;entryY=0.5;entryDx=0;entryDy=0;" parent="1" source="KE_0EZvATPjBC4SKUIB_-1" target="KE_0EZvATPjBC4SKUIB_-6" edge="1">
          <mxGeometry relative="1" as="geometry" />
        </mxCell>
        <mxCell id="KE_0EZvATPjBC4SKUIB_-9" style="edgeStyle=orthogonalEdgeStyle;rounded=0;orthogonalLoop=1;jettySize=auto;html=1;exitX=0.5;exitY=1;exitDx=0;exitDy=0;entryX=0.5;entryY=0;entryDx=0;entryDy=0;" parent="1" source="KE_0EZvATPjBC4SKUIB_-1" target="KE_0EZvATPjBC4SKUIB_-8" edge="1">
          <mxGeometry relative="1" as="geometry" />
        </mxCell>
        <mxCell id="KE_0EZvATPjBC4SKUIB_-1" value="CamCtrl" style="rounded=0;whiteSpace=wrap;html=1;" parent="1" vertex="1">
          <mxGeometry x="280" y="130" width="90" height="40" as="geometry" />
        </mxCell>
        <mxCell id="KE_0EZvATPjBC4SKUIB_-2" value="IhalISP Adapter" style="whiteSpace=wrap;html=1;rounded=0;" parent="1" vertex="1">
          <mxGeometry x="140" y="130" width="85" height="40" as="geometry" />
        </mxCell>
        <mxCell id="KE_0EZvATPjBC4SKUIB_-4" value="P1Node" style="whiteSpace=wrap;html=1;rounded=0;" parent="1" vertex="1">
          <mxGeometry x="280" y="60" width="85" height="40" as="geometry" />
        </mxCell>
        <mxCell id="KE_0EZvATPjBC4SKUIB_-6" value="3A control flows" style="whiteSpace=wrap;html=1;rounded=0;" parent="1" vertex="1">
          <mxGeometry x="410" y="130" width="85" height="40" as="geometry" />
        </mxCell>
        <mxCell id="KE_0EZvATPjBC4SKUIB_-8" value="PipeMgr" style="rounded=0;whiteSpace=wrap;html=1;" parent="1" vertex="1">
          <mxGeometry x="285" y="200" width="80" height="30" as="geometry" />
        </mxCell>
      </root>
    </mxGraphModel>
  </diagram>
</mxfile>
